<?xml version="1.0" standalone="no"?>
<!DOCTYPE svg PUBLIC "-//W3C//DTD SVG 20010904//EN"
 "http://www.w3.org/TR/2001/REC-SVG-20010904/DTD/svg10.dtd">
<svg version="1.0" xmlns="http://www.w3.org/2000/svg"
 width="512.000000pt" height="512.000000pt" viewBox="0 0 512.000000 512.000000"
 preserveAspectRatio="xMidYMid meet">

<g transform="translate(0.000000,512.000000) scale(0.100000,-0.100000)"
fill="#000000" stroke="none">
<path d="M328 4631 c-160 -51 -283 -187 -317 -349 -16 -75 -16 -3369 0 -3444
17 -82 65 -171 124 -229 66 -65 112 -94 194 -119 62 -20 96 -20 2230 -20 1803
0 2175 3 2217 14 142 38 263 149 318 294 l21 57 0 1725 0 1725 -21 57 c-55
145 -176 256 -318 294 -42 11 -413 14 -2221 13 -2072 0 -2173 -1 -2227 -18z
m4327 -2071 l0 -1625 -2095 0 -2095 0 -3 1615 c-1 888 0 1621 3 1628 3 10 428
12 2097 10 l2093 -3 0 -1625z"/>
<path d="M2330 1860 l0 -700 1045 0 1045 0 0 700 0 700 -1045 0 -1045 0 0
-700z"/>
</g>
</svg>
